<svg version="1.2" baseProfile="tiny-ps" xmlns="http://www.w3.org/2000/svg" viewBox="0 0 607 67" width="326" height="36">
	<title>CYBER SECURITY</title>
	<style>
		tspan { white-space:pre }
	</style>
	<path id="CYBER SECURITY" fill="#36e5ff" aria-label="CYBER SECURITY"  d="M5.27 34.04C5.27 49.51 15.46 60.37 31.01 60.37C43.99 60.37 53.23 52.89 55.8 41.15L40.32 41.15C38.49 45.04 35.04 47.17 30.79 47.17C24.19 47.17 19.86 42.03 19.86 34.04C19.86 26.12 24.19 20.99 30.79 20.99C35.04 20.99 38.49 23.11 40.32 27L55.8 27C53.23 15.27 43.99 7.79 31.01 7.79C15.46 7.79 5.27 18.64 5.27 34.04ZM76.99 43.57L76.99 60L91.44 60L91.44 43.57L109.62 8.3L93.42 8.3L84.32 28.25L75.23 8.3L58.8 8.3ZM142.19 43.87C142.19 46.95 140.35 48.41 136.76 48.41L128.4 48.41L128.4 39.03L136.69 39.03C140.21 39.03 142.19 40.71 142.19 43.87ZM141.09 24.36C141.09 27.37 139.18 28.83 135.66 28.83L128.4 28.83L128.4 19.74L135.66 19.74C139.18 19.74 141.09 21.28 141.09 24.36ZM156.93 45.92C156.93 40.05 153.19 34.85 147.03 33.45C152.09 32.06 155.75 27.95 155.75 21.72C155.75 13.14 149.3 8.3 138.81 8.3L114.02 8.3L114.02 60L139.62 60C150.69 60 156.93 54.65 156.93 45.92ZM196.31 8.3L163.23 8.3L163.23 60L196.31 60L196.31 48.49L177.61 48.49L177.61 39.17L194.11 39.17L194.11 28.25L177.61 28.25L177.61 19.81L196.31 19.81ZM230.77 25.68C230.77 29.2 228.79 31.11 224.91 31.11L217.79 31.11L217.79 20.33L224.91 20.33C228.79 20.33 230.77 22.45 230.77 25.68ZM203.42 8.3L203.42 60L217.79 60L217.79 40.93L219.33 40.93L229.6 60L245.66 60L234 39.83C241.7 37.49 245.37 31.62 245.37 24.87C245.37 15.63 238.91 8.3 226.08 8.3Z" />
	<path id="CYBER SECURITY" fill="#24669e" aria-label="CYBER SECURITY"  d="M306.24 46.07C306.24 27.15 278.66 35.36 278.66 22.16C278.66 16.66 282.99 13.8 288.49 13.95C294.72 14.02 297.95 17.91 298.39 21.35L305.72 21.35C304.91 13.58 298.53 8.23 288.78 8.23C278.66 8.23 271.84 13.95 271.84 22.38C271.84 41.37 299.49 32.57 299.49 46.36C299.49 51.2 295.67 54.87 289.22 54.87C282.11 54.87 279.1 50.61 278.66 46.36L271.55 46.36C271.69 54.79 278.95 60.51 289.22 60.51C300.29 60.51 306.24 53.33 306.24 46.07ZM343.56 8.81L316.06 8.81L316.06 60L343.56 60L343.56 54.5L322.74 54.5L322.74 36.9L341.36 36.9L341.36 31.4L322.74 31.4L322.74 14.31L343.56 14.31ZM351.19 34.41C351.19 49.73 362.41 60.44 376.71 60.44C387.78 60.44 396.58 54.94 400.4 45.11L392.4 45.11C389.62 51.2 384.19 54.65 376.71 54.65C366 54.65 358.01 46.87 358.01 34.41C358.01 21.87 366 14.09 376.71 14.09C384.19 14.09 389.62 17.54 392.4 23.7L400.4 23.7C396.58 13.8 387.78 8.23 376.71 8.23C362.41 8.23 351.19 19.08 351.19 34.41ZM410.15 41.15C410.15 54.43 418.8 60.51 429.36 60.51C439.92 60.51 448.65 54.43 448.65 41.15L448.65 8.89L441.98 8.89L441.98 41.23C441.98 50.61 436.99 54.65 429.44 54.65C421.88 54.65 416.82 50.61 416.82 41.23L416.82 8.89L410.15 8.89ZM487.15 23.92C487.15 29.64 483.85 33.75 476.3 33.75L466.47 33.75L466.47 14.39L476.3 14.39C483.92 14.39 487.15 18.13 487.15 23.92ZM459.8 8.89L459.8 60L466.47 60L466.47 39.1L474.54 39.1L486.71 60L494.71 60L481.87 38.59C490.45 36.68 494.05 30.45 494.05 23.92C494.05 15.56 488.32 8.89 476.3 8.89ZM504.39 60L511.06 60L511.06 8.89L504.39 8.89ZM519.27 14.31L533.28 14.31L533.28 60L539.95 60L539.95 14.31L553.89 14.31L553.89 8.89L519.27 8.89ZM574.57 40.71L574.57 60L581.24 60L581.24 40.71L597.89 8.89L590.48 8.89L577.87 34.77L565.25 8.89L557.85 8.89Z" />
</svg>